<mxfile host="app.diagrams.net" modified="2021-08-30T04:28:26.877Z" agent="5.0 (Macintosh; Intel Mac OS X 10_15_7) AppleWebKit/537.36 (KHTML, like Gecko) Chrome/92.0.4515.159 Safari/537.36" etag="-0VVGynvQ2-v0-7nPoIh" version="15.0.3" type="github">
  <diagram id="n1cJ3B8cktB44HjZlLGf" name="Page-1">
    <mxGraphModel dx="2037" dy="1053" grid="1" gridSize="10" guides="1" tooltips="1" connect="1" arrows="1" fold="1" page="1" pageScale="1" pageWidth="827" pageHeight="1169" math="0" shadow="0">
      <root>
        <mxCell id="0" />
        <mxCell id="1" parent="0" />
        <mxCell id="r3QCeaE21muGl6b7Fwn3-43" style="edgeStyle=none;rounded=0;orthogonalLoop=1;jettySize=auto;html=1;entryX=0;entryY=0;entryDx=0;entryDy=40;entryPerimeter=0;" edge="1" parent="1" source="r3QCeaE21muGl6b7Fwn3-1" target="r3QCeaE21muGl6b7Fwn3-4">
          <mxGeometry relative="1" as="geometry" />
        </mxCell>
        <mxCell id="r3QCeaE21muGl6b7Fwn3-59" style="edgeStyle=none;rounded=0;orthogonalLoop=1;jettySize=auto;html=1;" edge="1" parent="1" source="r3QCeaE21muGl6b7Fwn3-1" target="r3QCeaE21muGl6b7Fwn3-10">
          <mxGeometry relative="1" as="geometry" />
        </mxCell>
        <mxCell id="r3QCeaE21muGl6b7Fwn3-1" value="&lt;span&gt;:Reactor08&lt;/span&gt;" style="shape=cube;whiteSpace=wrap;html=1;boundedLbl=1;backgroundOutline=1;darkOpacity=0.05;darkOpacity2=0.1;" vertex="1" parent="1">
          <mxGeometry x="110" y="140" width="130" height="100" as="geometry" />
        </mxCell>
        <mxCell id="r3QCeaE21muGl6b7Fwn3-36" style="edgeStyle=none;rounded=0;orthogonalLoop=1;jettySize=auto;html=1;entryX=-0.031;entryY=0.48;entryDx=0;entryDy=0;entryPerimeter=0;" edge="1" parent="1" source="r3QCeaE21muGl6b7Fwn3-4" target="r3QCeaE21muGl6b7Fwn3-9">
          <mxGeometry relative="1" as="geometry" />
        </mxCell>
        <mxCell id="r3QCeaE21muGl6b7Fwn3-52" style="edgeStyle=none;rounded=0;orthogonalLoop=1;jettySize=auto;html=1;entryX=0;entryY=0;entryDx=0;entryDy=40;entryPerimeter=0;" edge="1" parent="1" source="r3QCeaE21muGl6b7Fwn3-4" target="r3QCeaE21muGl6b7Fwn3-8">
          <mxGeometry relative="1" as="geometry" />
        </mxCell>
        <mxCell id="r3QCeaE21muGl6b7Fwn3-4" value=":Reactor01" style="shape=cube;whiteSpace=wrap;html=1;boundedLbl=1;backgroundOutline=1;darkOpacity=0.05;darkOpacity2=0.1;" vertex="1" parent="1">
          <mxGeometry x="349" y="50" width="130" height="100" as="geometry" />
        </mxCell>
        <mxCell id="r3QCeaE21muGl6b7Fwn3-42" style="edgeStyle=none;rounded=0;orthogonalLoop=1;jettySize=auto;html=1;" edge="1" parent="1" source="r3QCeaE21muGl6b7Fwn3-5" target="r3QCeaE21muGl6b7Fwn3-1">
          <mxGeometry relative="1" as="geometry" />
        </mxCell>
        <mxCell id="r3QCeaE21muGl6b7Fwn3-58" style="edgeStyle=none;rounded=0;orthogonalLoop=1;jettySize=auto;html=1;entryX=0;entryY=0;entryDx=0;entryDy=80;entryPerimeter=0;" edge="1" parent="1" source="r3QCeaE21muGl6b7Fwn3-5" target="r3QCeaE21muGl6b7Fwn3-9">
          <mxGeometry relative="1" as="geometry" />
        </mxCell>
        <mxCell id="r3QCeaE21muGl6b7Fwn3-5" value="&lt;span&gt;:Reactor07&lt;/span&gt;" style="shape=cube;whiteSpace=wrap;html=1;boundedLbl=1;backgroundOutline=1;darkOpacity=0.05;darkOpacity2=0.1;" vertex="1" parent="1">
          <mxGeometry x="70" y="320" width="130" height="100" as="geometry" />
        </mxCell>
        <mxCell id="r3QCeaE21muGl6b7Fwn3-41" style="edgeStyle=none;rounded=0;orthogonalLoop=1;jettySize=auto;html=1;entryX=0;entryY=0;entryDx=75;entryDy=100;entryPerimeter=0;" edge="1" parent="1" source="r3QCeaE21muGl6b7Fwn3-6" target="r3QCeaE21muGl6b7Fwn3-5">
          <mxGeometry relative="1" as="geometry" />
        </mxCell>
        <mxCell id="r3QCeaE21muGl6b7Fwn3-57" style="edgeStyle=none;rounded=0;orthogonalLoop=1;jettySize=auto;html=1;entryX=0;entryY=0;entryDx=75;entryDy=100;entryPerimeter=0;" edge="1" parent="1" source="r3QCeaE21muGl6b7Fwn3-6" target="r3QCeaE21muGl6b7Fwn3-4">
          <mxGeometry relative="1" as="geometry" />
        </mxCell>
        <mxCell id="r3QCeaE21muGl6b7Fwn3-6" value="&lt;span&gt;:Reactor06&lt;/span&gt;" style="shape=cube;whiteSpace=wrap;html=1;boundedLbl=1;backgroundOutline=1;darkOpacity=0.05;darkOpacity2=0.1;" vertex="1" parent="1">
          <mxGeometry x="90" y="485" width="130" height="100" as="geometry" />
        </mxCell>
        <mxCell id="r3QCeaE21muGl6b7Fwn3-40" style="edgeStyle=none;rounded=0;orthogonalLoop=1;jettySize=auto;html=1;entryX=0.992;entryY=0.68;entryDx=0;entryDy=0;entryPerimeter=0;" edge="1" parent="1" source="r3QCeaE21muGl6b7Fwn3-7" target="r3QCeaE21muGl6b7Fwn3-6">
          <mxGeometry relative="1" as="geometry" />
        </mxCell>
        <mxCell id="r3QCeaE21muGl6b7Fwn3-56" style="edgeStyle=none;rounded=0;orthogonalLoop=1;jettySize=auto;html=1;entryX=0.737;entryY=0.999;entryDx=0;entryDy=0;entryPerimeter=0;" edge="1" parent="1" source="r3QCeaE21muGl6b7Fwn3-7" target="r3QCeaE21muGl6b7Fwn3-1">
          <mxGeometry relative="1" as="geometry" />
        </mxCell>
        <mxCell id="r3QCeaE21muGl6b7Fwn3-7" value="&lt;span&gt;:Reactor05&lt;/span&gt;" style="shape=cube;whiteSpace=wrap;html=1;boundedLbl=1;backgroundOutline=1;darkOpacity=0.05;darkOpacity2=0.1;" vertex="1" parent="1">
          <mxGeometry x="360" y="585" width="130" height="100" as="geometry" />
        </mxCell>
        <mxCell id="r3QCeaE21muGl6b7Fwn3-39" style="edgeStyle=none;rounded=0;orthogonalLoop=1;jettySize=auto;html=1;entryX=1.023;entryY=0.67;entryDx=0;entryDy=0;entryPerimeter=0;" edge="1" parent="1" source="r3QCeaE21muGl6b7Fwn3-8" target="r3QCeaE21muGl6b7Fwn3-7">
          <mxGeometry relative="1" as="geometry" />
        </mxCell>
        <mxCell id="r3QCeaE21muGl6b7Fwn3-55" style="edgeStyle=none;rounded=0;orthogonalLoop=1;jettySize=auto;html=1;entryX=0;entryY=0;entryDx=130;entryDy=60;entryPerimeter=0;" edge="1" parent="1" source="r3QCeaE21muGl6b7Fwn3-8" target="r3QCeaE21muGl6b7Fwn3-5">
          <mxGeometry relative="1" as="geometry" />
        </mxCell>
        <mxCell id="r3QCeaE21muGl6b7Fwn3-8" value="&lt;span&gt;:Reactor04&lt;/span&gt;" style="shape=cube;whiteSpace=wrap;html=1;boundedLbl=1;backgroundOutline=1;darkOpacity=0.05;darkOpacity2=0.1;" vertex="1" parent="1">
          <mxGeometry x="580" y="470" width="130" height="100" as="geometry" />
        </mxCell>
        <mxCell id="r3QCeaE21muGl6b7Fwn3-37" style="edgeStyle=none;rounded=0;orthogonalLoop=1;jettySize=auto;html=1;entryX=0;entryY=0;entryDx=55;entryDy=0;entryPerimeter=0;" edge="1" parent="1" source="r3QCeaE21muGl6b7Fwn3-9" target="r3QCeaE21muGl6b7Fwn3-10">
          <mxGeometry relative="1" as="geometry" />
        </mxCell>
        <mxCell id="r3QCeaE21muGl6b7Fwn3-53" style="edgeStyle=none;rounded=0;orthogonalLoop=1;jettySize=auto;html=1;" edge="1" parent="1" source="r3QCeaE21muGl6b7Fwn3-9" target="r3QCeaE21muGl6b7Fwn3-7">
          <mxGeometry relative="1" as="geometry" />
        </mxCell>
        <mxCell id="r3QCeaE21muGl6b7Fwn3-9" value="&lt;span&gt;:Reactor02&lt;/span&gt;" style="shape=cube;whiteSpace=wrap;html=1;boundedLbl=1;backgroundOutline=1;darkOpacity=0.05;darkOpacity2=0.1;" vertex="1" parent="1">
          <mxGeometry x="580" y="110" width="130" height="100" as="geometry" />
        </mxCell>
        <mxCell id="r3QCeaE21muGl6b7Fwn3-38" style="edgeStyle=none;rounded=0;orthogonalLoop=1;jettySize=auto;html=1;entryX=0;entryY=0;entryDx=55;entryDy=0;entryPerimeter=0;" edge="1" parent="1" source="r3QCeaE21muGl6b7Fwn3-10" target="r3QCeaE21muGl6b7Fwn3-8">
          <mxGeometry relative="1" as="geometry" />
        </mxCell>
        <mxCell id="r3QCeaE21muGl6b7Fwn3-54" style="edgeStyle=none;rounded=0;orthogonalLoop=1;jettySize=auto;html=1;entryX=0.99;entryY=0.434;entryDx=0;entryDy=0;entryPerimeter=0;" edge="1" parent="1" source="r3QCeaE21muGl6b7Fwn3-10" target="r3QCeaE21muGl6b7Fwn3-6">
          <mxGeometry relative="1" as="geometry" />
        </mxCell>
        <mxCell id="r3QCeaE21muGl6b7Fwn3-10" value="&lt;span&gt;:Reactor03&lt;/span&gt;" style="shape=cube;whiteSpace=wrap;html=1;boundedLbl=1;backgroundOutline=1;darkOpacity=0.05;darkOpacity2=0.1;" vertex="1" parent="1">
          <mxGeometry x="640" y="290" width="130" height="100" as="geometry" />
        </mxCell>
      </root>
    </mxGraphModel>
  </diagram>
</mxfile>
